<mxfile host="app.diagrams.net" modified="2022-06-05T18:47:21.000Z" agent="5.0 (Windows)" etag="OCMoBk2hJi3u73ZuX485" version="19.0.0" type="github">
  <diagram id="C5RBs43oDa-KdzZeNtuy" name="Page-1">
    <mxGraphModel dx="1964" dy="1078" grid="1" gridSize="10" guides="1" tooltips="1" connect="1" arrows="1" fold="1" page="1" pageScale="1" pageWidth="1920" pageHeight="1200" background="#DAD2D8" math="0" shadow="0">
      <root>
        <mxCell id="WIyWlLk6GJQsqaUBKTNV-0" />
        <mxCell id="WIyWlLk6GJQsqaUBKTNV-1" parent="WIyWlLk6GJQsqaUBKTNV-0" />
        <mxCell id="KCQO5UrOi2mfF8OqEV4j-2" style="edgeStyle=orthogonalEdgeStyle;rounded=1;sketch=0;orthogonalLoop=1;jettySize=auto;html=1;exitX=0.5;exitY=1;exitDx=0;exitDy=0;entryX=0.5;entryY=0;entryDx=0;entryDy=0;fontColor=#143642;strokeColor=#A8201A;fillColor=#FAE5C7;labelBackgroundColor=#DAD2D8;" edge="1" parent="WIyWlLk6GJQsqaUBKTNV-1" source="KCQO5UrOi2mfF8OqEV4j-55" target="KCQO5UrOi2mfF8OqEV4j-1">
          <mxGeometry relative="1" as="geometry">
            <mxPoint x="110" y="136" as="sourcePoint" />
          </mxGeometry>
        </mxCell>
        <mxCell id="KCQO5UrOi2mfF8OqEV4j-0" value="Insert client" style="fillColor=#FAE5C7;strokeColor=none;shadow=1;fontSize=14;align=left;spacingLeft=50;fontColor=#143642;rounded=1;sketch=0;" vertex="1" parent="WIyWlLk6GJQsqaUBKTNV-1">
          <mxGeometry x="100" y="26" width="186" height="40" as="geometry" />
        </mxCell>
        <mxCell id="KCQO5UrOi2mfF8OqEV4j-4" value="" style="edgeStyle=orthogonalEdgeStyle;rounded=1;sketch=0;orthogonalLoop=1;jettySize=auto;html=1;fontColor=#143642;strokeColor=#A8201A;fillColor=#FAE5C7;labelBackgroundColor=#DAD2D8;" edge="1" parent="WIyWlLk6GJQsqaUBKTNV-1" source="KCQO5UrOi2mfF8OqEV4j-1" target="KCQO5UrOi2mfF8OqEV4j-3">
          <mxGeometry relative="1" as="geometry" />
        </mxCell>
        <mxCell id="KCQO5UrOi2mfF8OqEV4j-1" value="&lt;div&gt;displayName&lt;/div&gt;&lt;div&gt;address&lt;/div&gt;&lt;div&gt;cellular&lt;/div&gt;&lt;div&gt;office_number&lt;/div&gt;&lt;div&gt;business_name&lt;br&gt;&lt;/div&gt;" style="shape=parallelogram;perimeter=parallelogramPerimeter;whiteSpace=wrap;html=1;fixedSize=1;rounded=1;sketch=0;fontColor=#143642;strokeColor=#0F8B8D;fillColor=#FAE5C7;" vertex="1" parent="WIyWlLk6GJQsqaUBKTNV-1">
          <mxGeometry x="37.5" y="175" width="145" height="103" as="geometry" />
        </mxCell>
        <mxCell id="KCQO5UrOi2mfF8OqEV4j-6" value="" style="edgeStyle=orthogonalEdgeStyle;rounded=1;sketch=0;orthogonalLoop=1;jettySize=auto;html=1;fontColor=#143642;strokeColor=#A8201A;fillColor=#FAE5C7;labelBackgroundColor=#DAD2D8;" edge="1" parent="WIyWlLk6GJQsqaUBKTNV-1" source="KCQO5UrOi2mfF8OqEV4j-3" target="KCQO5UrOi2mfF8OqEV4j-5">
          <mxGeometry relative="1" as="geometry" />
        </mxCell>
        <mxCell id="KCQO5UrOi2mfF8OqEV4j-3" value="Validate fields" style="whiteSpace=wrap;html=1;fillColor=#FAE5C7;strokeColor=#0F8B8D;fontColor=#143642;rounded=1;sketch=0;" vertex="1" parent="WIyWlLk6GJQsqaUBKTNV-1">
          <mxGeometry x="50" y="320" width="120" height="40" as="geometry" />
        </mxCell>
        <mxCell id="KCQO5UrOi2mfF8OqEV4j-8" value="" style="edgeStyle=orthogonalEdgeStyle;rounded=1;sketch=0;orthogonalLoop=1;jettySize=auto;html=1;fontColor=#143642;strokeColor=#A8201A;fillColor=#FAE5C7;labelBackgroundColor=#DAD2D8;" edge="1" parent="WIyWlLk6GJQsqaUBKTNV-1" source="KCQO5UrOi2mfF8OqEV4j-5" target="KCQO5UrOi2mfF8OqEV4j-7">
          <mxGeometry relative="1" as="geometry" />
        </mxCell>
        <mxCell id="KCQO5UrOi2mfF8OqEV4j-10" value="Yes" style="edgeLabel;align=center;verticalAlign=middle;resizable=0;points=[];fontColor=#143642;labelBackgroundColor=none;html=1;" vertex="1" connectable="0" parent="KCQO5UrOi2mfF8OqEV4j-8">
          <mxGeometry x="-0.2923" y="-1" relative="1" as="geometry">
            <mxPoint x="6" y="9" as="offset" />
          </mxGeometry>
        </mxCell>
        <mxCell id="KCQO5UrOi2mfF8OqEV4j-12" value="" style="edgeStyle=orthogonalEdgeStyle;rounded=1;sketch=0;orthogonalLoop=1;jettySize=auto;html=1;fontColor=#143642;strokeColor=#A8201A;fillColor=#FAE5C7;labelBackgroundColor=#DAD2D8;" edge="1" parent="WIyWlLk6GJQsqaUBKTNV-1" source="KCQO5UrOi2mfF8OqEV4j-5" target="KCQO5UrOi2mfF8OqEV4j-11">
          <mxGeometry relative="1" as="geometry" />
        </mxCell>
        <mxCell id="KCQO5UrOi2mfF8OqEV4j-13" value="No" style="edgeLabel;html=1;align=center;verticalAlign=middle;resizable=0;points=[];fontColor=#143642;labelBackgroundColor=none;" vertex="1" connectable="0" parent="KCQO5UrOi2mfF8OqEV4j-12">
          <mxGeometry x="-0.1308" y="-1" relative="1" as="geometry">
            <mxPoint x="11" as="offset" />
          </mxGeometry>
        </mxCell>
        <mxCell id="KCQO5UrOi2mfF8OqEV4j-5" value="Is there validation errors?" style="rhombus;whiteSpace=wrap;html=1;fillColor=#FAE5C7;strokeColor=#0F8B8D;fontColor=#143642;rounded=1;sketch=0;" vertex="1" parent="WIyWlLk6GJQsqaUBKTNV-1">
          <mxGeometry x="65" y="400" width="90" height="90" as="geometry" />
        </mxCell>
        <mxCell id="KCQO5UrOi2mfF8OqEV4j-9" style="edgeStyle=orthogonalEdgeStyle;rounded=1;sketch=0;orthogonalLoop=1;jettySize=auto;html=1;fontColor=#143642;strokeColor=#A8201A;fillColor=#FAE5C7;labelBackgroundColor=#DAD2D8;entryX=1.001;entryY=0.462;entryDx=0;entryDy=0;entryPerimeter=0;" edge="1" parent="WIyWlLk6GJQsqaUBKTNV-1" source="KCQO5UrOi2mfF8OqEV4j-7" target="KCQO5UrOi2mfF8OqEV4j-55">
          <mxGeometry relative="1" as="geometry">
            <mxPoint x="170" y="110" as="targetPoint" />
            <Array as="points">
              <mxPoint x="360" y="445" />
              <mxPoint x="360" y="109" />
            </Array>
          </mxGeometry>
        </mxCell>
        <mxCell id="KCQO5UrOi2mfF8OqEV4j-7" value="Show warning" style="whiteSpace=wrap;html=1;fillColor=#FAE5C7;strokeColor=#0F8B8D;fontColor=#143642;rounded=1;sketch=0;" vertex="1" parent="WIyWlLk6GJQsqaUBKTNV-1">
          <mxGeometry x="220" y="425" width="120" height="40" as="geometry" />
        </mxCell>
        <mxCell id="KCQO5UrOi2mfF8OqEV4j-11" value="POST " style="whiteSpace=wrap;html=1;fillColor=#FAE5C7;strokeColor=#0F8B8D;fontColor=#143642;rounded=1;sketch=0;" vertex="1" parent="WIyWlLk6GJQsqaUBKTNV-1">
          <mxGeometry x="50" y="540" width="120" height="40" as="geometry" />
        </mxCell>
        <mxCell id="KCQO5UrOi2mfF8OqEV4j-14" value="" style="edgeStyle=orthogonalEdgeStyle;rounded=1;sketch=0;orthogonalLoop=1;jettySize=auto;html=1;fontColor=#143642;strokeColor=#A8201A;fillColor=#FAE5C7;labelBackgroundColor=#DAD2D8;exitX=0.5;exitY=1;exitDx=0;exitDy=0;" edge="1" parent="WIyWlLk6GJQsqaUBKTNV-1" target="KCQO5UrOi2mfF8OqEV4j-19" source="KCQO5UrOi2mfF8OqEV4j-11">
          <mxGeometry relative="1" as="geometry">
            <mxPoint x="110" y="590" as="sourcePoint" />
          </mxGeometry>
        </mxCell>
        <mxCell id="KCQO5UrOi2mfF8OqEV4j-15" value="" style="edgeStyle=orthogonalEdgeStyle;rounded=1;sketch=0;orthogonalLoop=1;jettySize=auto;html=1;fontColor=#143642;strokeColor=#A8201A;fillColor=#FAE5C7;labelBackgroundColor=#DAD2D8;" edge="1" parent="WIyWlLk6GJQsqaUBKTNV-1" source="KCQO5UrOi2mfF8OqEV4j-19">
          <mxGeometry relative="1" as="geometry">
            <mxPoint x="220" y="665" as="targetPoint" />
          </mxGeometry>
        </mxCell>
        <mxCell id="KCQO5UrOi2mfF8OqEV4j-16" value="Yes" style="edgeLabel;align=center;verticalAlign=middle;resizable=0;points=[];fontColor=#143642;labelBackgroundColor=none;html=1;" vertex="1" connectable="0" parent="KCQO5UrOi2mfF8OqEV4j-15">
          <mxGeometry x="-0.2923" y="-1" relative="1" as="geometry">
            <mxPoint x="6" y="9" as="offset" />
          </mxGeometry>
        </mxCell>
        <mxCell id="KCQO5UrOi2mfF8OqEV4j-17" value="" style="edgeStyle=orthogonalEdgeStyle;rounded=1;sketch=0;orthogonalLoop=1;jettySize=auto;html=1;fontColor=#143642;strokeColor=#A8201A;fillColor=#FAE5C7;labelBackgroundColor=#DAD2D8;" edge="1" parent="WIyWlLk6GJQsqaUBKTNV-1" source="KCQO5UrOi2mfF8OqEV4j-19">
          <mxGeometry relative="1" as="geometry">
            <mxPoint x="110" y="760" as="targetPoint" />
          </mxGeometry>
        </mxCell>
        <mxCell id="KCQO5UrOi2mfF8OqEV4j-18" value="No" style="edgeLabel;html=1;align=center;verticalAlign=middle;resizable=0;points=[];fontColor=#143642;labelBackgroundColor=none;" vertex="1" connectable="0" parent="KCQO5UrOi2mfF8OqEV4j-17">
          <mxGeometry x="-0.1308" y="-1" relative="1" as="geometry">
            <mxPoint x="11" as="offset" />
          </mxGeometry>
        </mxCell>
        <mxCell id="KCQO5UrOi2mfF8OqEV4j-19" value="Is there errors?" style="rhombus;whiteSpace=wrap;html=1;fillColor=#FAE5C7;strokeColor=#0F8B8D;fontColor=#143642;rounded=1;sketch=0;" vertex="1" parent="WIyWlLk6GJQsqaUBKTNV-1">
          <mxGeometry x="52.5" y="620" width="115" height="90" as="geometry" />
        </mxCell>
        <mxCell id="KCQO5UrOi2mfF8OqEV4j-21" style="edgeStyle=orthogonalEdgeStyle;curved=0;rounded=1;sketch=0;orthogonalLoop=1;jettySize=auto;html=1;fontColor=#143642;strokeColor=#A8201A;fillColor=#FAE5C7;entryX=1.001;entryY=0.472;entryDx=0;entryDy=0;entryPerimeter=0;" edge="1" parent="WIyWlLk6GJQsqaUBKTNV-1" source="KCQO5UrOi2mfF8OqEV4j-20" target="KCQO5UrOi2mfF8OqEV4j-55">
          <mxGeometry relative="1" as="geometry">
            <mxPoint x="150" y="110" as="targetPoint" />
            <Array as="points">
              <mxPoint x="360" y="665" />
              <mxPoint x="360" y="110" />
            </Array>
          </mxGeometry>
        </mxCell>
        <mxCell id="KCQO5UrOi2mfF8OqEV4j-20" value="Show warning" style="whiteSpace=wrap;html=1;fillColor=#FAE5C7;strokeColor=#0F8B8D;fontColor=#143642;rounded=1;sketch=0;" vertex="1" parent="WIyWlLk6GJQsqaUBKTNV-1">
          <mxGeometry x="220" y="645" width="120" height="40" as="geometry" />
        </mxCell>
        <mxCell id="KCQO5UrOi2mfF8OqEV4j-22" value="Let user know" style="whiteSpace=wrap;html=1;fillColor=#FAE5C7;strokeColor=#0F8B8D;fontColor=#143642;rounded=1;sketch=0;" vertex="1" parent="WIyWlLk6GJQsqaUBKTNV-1">
          <mxGeometry x="52.5" y="760" width="120" height="40" as="geometry" />
        </mxCell>
        <mxCell id="KCQO5UrOi2mfF8OqEV4j-24" value="Modify client" style="fillColor=#FAE5C7;strokeColor=none;shadow=1;fontSize=14;align=left;spacingLeft=50;fontColor=#143642;rounded=1;sketch=0;" vertex="1" parent="WIyWlLk6GJQsqaUBKTNV-1">
          <mxGeometry x="497" y="26" width="186" height="40" as="geometry" />
        </mxCell>
        <mxCell id="KCQO5UrOi2mfF8OqEV4j-25" style="edgeStyle=orthogonalEdgeStyle;rounded=1;sketch=0;orthogonalLoop=1;jettySize=auto;html=1;exitX=0.5;exitY=1;exitDx=0;exitDy=0;entryX=0.5;entryY=0;entryDx=0;entryDy=0;fontColor=#143642;strokeColor=#A8201A;fillColor=#FAE5C7;labelBackgroundColor=#DAD2D8;" edge="1" parent="WIyWlLk6GJQsqaUBKTNV-1" source="KCQO5UrOi2mfF8OqEV4j-49" target="KCQO5UrOi2mfF8OqEV4j-28">
          <mxGeometry relative="1" as="geometry">
            <mxPoint x="532.5" y="136" as="sourcePoint" />
          </mxGeometry>
        </mxCell>
        <mxCell id="KCQO5UrOi2mfF8OqEV4j-27" value="" style="edgeStyle=orthogonalEdgeStyle;rounded=1;sketch=0;orthogonalLoop=1;jettySize=auto;html=1;fontColor=#143642;strokeColor=#A8201A;fillColor=#FAE5C7;labelBackgroundColor=#DAD2D8;" edge="1" parent="WIyWlLk6GJQsqaUBKTNV-1" source="KCQO5UrOi2mfF8OqEV4j-28" target="KCQO5UrOi2mfF8OqEV4j-30">
          <mxGeometry relative="1" as="geometry" />
        </mxCell>
        <mxCell id="KCQO5UrOi2mfF8OqEV4j-28" value="&lt;div&gt;displayName&lt;/div&gt;&lt;div&gt;address&lt;/div&gt;&lt;div&gt;cellular&lt;/div&gt;&lt;div&gt;office_number&lt;/div&gt;&lt;div&gt;business_name&lt;br&gt;&lt;/div&gt;" style="shape=parallelogram;perimeter=parallelogramPerimeter;whiteSpace=wrap;html=1;fixedSize=1;rounded=1;sketch=0;fontColor=#143642;strokeColor=#0F8B8D;fillColor=#FAE5C7;" vertex="1" parent="WIyWlLk6GJQsqaUBKTNV-1">
          <mxGeometry x="460" y="175" width="145" height="103" as="geometry" />
        </mxCell>
        <mxCell id="KCQO5UrOi2mfF8OqEV4j-29" value="" style="edgeStyle=orthogonalEdgeStyle;rounded=1;sketch=0;orthogonalLoop=1;jettySize=auto;html=1;fontColor=#143642;strokeColor=#A8201A;fillColor=#FAE5C7;labelBackgroundColor=#DAD2D8;" edge="1" parent="WIyWlLk6GJQsqaUBKTNV-1" source="KCQO5UrOi2mfF8OqEV4j-30" target="KCQO5UrOi2mfF8OqEV4j-35">
          <mxGeometry relative="1" as="geometry" />
        </mxCell>
        <mxCell id="KCQO5UrOi2mfF8OqEV4j-30" value="Validate fields" style="whiteSpace=wrap;html=1;fillColor=#FAE5C7;strokeColor=#0F8B8D;fontColor=#143642;rounded=1;sketch=0;" vertex="1" parent="WIyWlLk6GJQsqaUBKTNV-1">
          <mxGeometry x="472.5" y="320" width="120" height="40" as="geometry" />
        </mxCell>
        <mxCell id="KCQO5UrOi2mfF8OqEV4j-31" value="" style="edgeStyle=orthogonalEdgeStyle;rounded=1;sketch=0;orthogonalLoop=1;jettySize=auto;html=1;fontColor=#143642;strokeColor=#A8201A;fillColor=#FAE5C7;labelBackgroundColor=#DAD2D8;" edge="1" parent="WIyWlLk6GJQsqaUBKTNV-1" source="KCQO5UrOi2mfF8OqEV4j-35" target="KCQO5UrOi2mfF8OqEV4j-37">
          <mxGeometry relative="1" as="geometry" />
        </mxCell>
        <mxCell id="KCQO5UrOi2mfF8OqEV4j-32" value="Yes" style="edgeLabel;align=center;verticalAlign=middle;resizable=0;points=[];fontColor=#143642;labelBackgroundColor=none;html=1;" vertex="1" connectable="0" parent="KCQO5UrOi2mfF8OqEV4j-31">
          <mxGeometry x="-0.2923" y="-1" relative="1" as="geometry">
            <mxPoint x="6" y="9" as="offset" />
          </mxGeometry>
        </mxCell>
        <mxCell id="KCQO5UrOi2mfF8OqEV4j-33" value="" style="edgeStyle=orthogonalEdgeStyle;rounded=1;sketch=0;orthogonalLoop=1;jettySize=auto;html=1;fontColor=#143642;strokeColor=#A8201A;fillColor=#FAE5C7;labelBackgroundColor=#DAD2D8;" edge="1" parent="WIyWlLk6GJQsqaUBKTNV-1" source="KCQO5UrOi2mfF8OqEV4j-35" target="KCQO5UrOi2mfF8OqEV4j-38">
          <mxGeometry relative="1" as="geometry" />
        </mxCell>
        <mxCell id="KCQO5UrOi2mfF8OqEV4j-34" value="No" style="edgeLabel;html=1;align=center;verticalAlign=middle;resizable=0;points=[];fontColor=#143642;labelBackgroundColor=none;" vertex="1" connectable="0" parent="KCQO5UrOi2mfF8OqEV4j-33">
          <mxGeometry x="-0.1308" y="-1" relative="1" as="geometry">
            <mxPoint x="11" as="offset" />
          </mxGeometry>
        </mxCell>
        <mxCell id="KCQO5UrOi2mfF8OqEV4j-35" value="Is there validation errors?" style="rhombus;whiteSpace=wrap;html=1;fillColor=#FAE5C7;strokeColor=#0F8B8D;fontColor=#143642;rounded=1;sketch=0;" vertex="1" parent="WIyWlLk6GJQsqaUBKTNV-1">
          <mxGeometry x="487.5" y="400" width="90" height="90" as="geometry" />
        </mxCell>
        <mxCell id="KCQO5UrOi2mfF8OqEV4j-52" style="edgeStyle=orthogonalEdgeStyle;curved=0;rounded=1;sketch=0;orthogonalLoop=1;jettySize=auto;html=1;entryX=1;entryY=0.5;entryDx=0;entryDy=0;fontColor=#143642;strokeColor=#A8201A;fillColor=#FAE5C7;" edge="1" parent="WIyWlLk6GJQsqaUBKTNV-1" source="KCQO5UrOi2mfF8OqEV4j-37" target="KCQO5UrOi2mfF8OqEV4j-49">
          <mxGeometry relative="1" as="geometry">
            <Array as="points">
              <mxPoint x="780" y="445" />
              <mxPoint x="780" y="111" />
            </Array>
          </mxGeometry>
        </mxCell>
        <mxCell id="KCQO5UrOi2mfF8OqEV4j-37" value="Show warning" style="whiteSpace=wrap;html=1;fillColor=#FAE5C7;strokeColor=#0F8B8D;fontColor=#143642;rounded=1;sketch=0;" vertex="1" parent="WIyWlLk6GJQsqaUBKTNV-1">
          <mxGeometry x="642.5" y="425" width="120" height="40" as="geometry" />
        </mxCell>
        <mxCell id="KCQO5UrOi2mfF8OqEV4j-38" value="PATCH / PUT" style="whiteSpace=wrap;html=1;fillColor=#FAE5C7;strokeColor=#0F8B8D;fontColor=#143642;rounded=1;sketch=0;" vertex="1" parent="WIyWlLk6GJQsqaUBKTNV-1">
          <mxGeometry x="472.5" y="540" width="120" height="40" as="geometry" />
        </mxCell>
        <mxCell id="KCQO5UrOi2mfF8OqEV4j-39" value="" style="edgeStyle=orthogonalEdgeStyle;rounded=1;sketch=0;orthogonalLoop=1;jettySize=auto;html=1;fontColor=#143642;strokeColor=#A8201A;fillColor=#FAE5C7;labelBackgroundColor=#DAD2D8;exitX=0.5;exitY=1;exitDx=0;exitDy=0;" edge="1" parent="WIyWlLk6GJQsqaUBKTNV-1" source="KCQO5UrOi2mfF8OqEV4j-38" target="KCQO5UrOi2mfF8OqEV4j-44">
          <mxGeometry relative="1" as="geometry">
            <mxPoint x="532.5" y="590" as="sourcePoint" />
          </mxGeometry>
        </mxCell>
        <mxCell id="KCQO5UrOi2mfF8OqEV4j-40" value="" style="edgeStyle=orthogonalEdgeStyle;rounded=1;sketch=0;orthogonalLoop=1;jettySize=auto;html=1;fontColor=#143642;strokeColor=#A8201A;fillColor=#FAE5C7;labelBackgroundColor=#DAD2D8;" edge="1" parent="WIyWlLk6GJQsqaUBKTNV-1" source="KCQO5UrOi2mfF8OqEV4j-44">
          <mxGeometry relative="1" as="geometry">
            <mxPoint x="642.5" y="665" as="targetPoint" />
          </mxGeometry>
        </mxCell>
        <mxCell id="KCQO5UrOi2mfF8OqEV4j-41" value="Yes" style="edgeLabel;align=center;verticalAlign=middle;resizable=0;points=[];fontColor=#143642;labelBackgroundColor=none;html=1;" vertex="1" connectable="0" parent="KCQO5UrOi2mfF8OqEV4j-40">
          <mxGeometry x="-0.2923" y="-1" relative="1" as="geometry">
            <mxPoint x="6" y="9" as="offset" />
          </mxGeometry>
        </mxCell>
        <mxCell id="KCQO5UrOi2mfF8OqEV4j-42" value="" style="edgeStyle=orthogonalEdgeStyle;rounded=1;sketch=0;orthogonalLoop=1;jettySize=auto;html=1;fontColor=#143642;strokeColor=#A8201A;fillColor=#FAE5C7;labelBackgroundColor=#DAD2D8;" edge="1" parent="WIyWlLk6GJQsqaUBKTNV-1" source="KCQO5UrOi2mfF8OqEV4j-44">
          <mxGeometry relative="1" as="geometry">
            <mxPoint x="532.5" y="760" as="targetPoint" />
          </mxGeometry>
        </mxCell>
        <mxCell id="KCQO5UrOi2mfF8OqEV4j-43" value="No" style="edgeLabel;html=1;align=center;verticalAlign=middle;resizable=0;points=[];fontColor=#143642;labelBackgroundColor=none;" vertex="1" connectable="0" parent="KCQO5UrOi2mfF8OqEV4j-42">
          <mxGeometry x="-0.1308" y="-1" relative="1" as="geometry">
            <mxPoint x="11" as="offset" />
          </mxGeometry>
        </mxCell>
        <mxCell id="KCQO5UrOi2mfF8OqEV4j-44" value="Is there errors?" style="rhombus;whiteSpace=wrap;html=1;fillColor=#FAE5C7;strokeColor=#0F8B8D;fontColor=#143642;rounded=1;sketch=0;" vertex="1" parent="WIyWlLk6GJQsqaUBKTNV-1">
          <mxGeometry x="475" y="620" width="115" height="90" as="geometry" />
        </mxCell>
        <mxCell id="KCQO5UrOi2mfF8OqEV4j-54" style="edgeStyle=orthogonalEdgeStyle;curved=0;rounded=1;sketch=0;orthogonalLoop=1;jettySize=auto;html=1;entryX=1;entryY=0.5;entryDx=0;entryDy=0;fontColor=#143642;strokeColor=#A8201A;fillColor=#FAE5C7;" edge="1" parent="WIyWlLk6GJQsqaUBKTNV-1" source="KCQO5UrOi2mfF8OqEV4j-46" target="KCQO5UrOi2mfF8OqEV4j-49">
          <mxGeometry relative="1" as="geometry">
            <Array as="points">
              <mxPoint x="780" y="665" />
              <mxPoint x="780" y="111" />
            </Array>
          </mxGeometry>
        </mxCell>
        <mxCell id="KCQO5UrOi2mfF8OqEV4j-46" value="Show warning" style="whiteSpace=wrap;html=1;fillColor=#FAE5C7;strokeColor=#0F8B8D;fontColor=#143642;rounded=1;sketch=0;" vertex="1" parent="WIyWlLk6GJQsqaUBKTNV-1">
          <mxGeometry x="642.5" y="645" width="120" height="40" as="geometry" />
        </mxCell>
        <mxCell id="KCQO5UrOi2mfF8OqEV4j-51" style="edgeStyle=orthogonalEdgeStyle;curved=0;rounded=1;sketch=0;orthogonalLoop=1;jettySize=auto;html=1;exitX=0.5;exitY=1;exitDx=0;exitDy=0;entryX=0.5;entryY=0;entryDx=0;entryDy=0;fontColor=#143642;strokeColor=#A8201A;fillColor=#FAE5C7;" edge="1" parent="WIyWlLk6GJQsqaUBKTNV-1" source="KCQO5UrOi2mfF8OqEV4j-47" target="KCQO5UrOi2mfF8OqEV4j-50">
          <mxGeometry relative="1" as="geometry" />
        </mxCell>
        <mxCell id="KCQO5UrOi2mfF8OqEV4j-47" value="Let user know" style="whiteSpace=wrap;html=1;fillColor=#FAE5C7;strokeColor=#0F8B8D;fontColor=#143642;rounded=1;sketch=0;" vertex="1" parent="WIyWlLk6GJQsqaUBKTNV-1">
          <mxGeometry x="475" y="760" width="120" height="40" as="geometry" />
        </mxCell>
        <mxCell id="KCQO5UrOi2mfF8OqEV4j-48" value="Delete client" style="fillColor=#FAE5C7;strokeColor=none;shadow=1;fontSize=14;align=left;spacingLeft=50;fontColor=#143642;rounded=1;sketch=0;" vertex="1" parent="WIyWlLk6GJQsqaUBKTNV-1">
          <mxGeometry x="900" y="26" width="186" height="40" as="geometry" />
        </mxCell>
        <mxCell id="KCQO5UrOi2mfF8OqEV4j-49" value="Start" style="ellipse;whiteSpace=wrap;html=1;rounded=0;sketch=0;fontColor=#143642;strokeColor=#0F8B8D;fillColor=#FAE5C7;" vertex="1" parent="WIyWlLk6GJQsqaUBKTNV-1">
          <mxGeometry x="507.5" y="86" width="50" height="50" as="geometry" />
        </mxCell>
        <mxCell id="KCQO5UrOi2mfF8OqEV4j-50" value="End" style="ellipse;whiteSpace=wrap;html=1;rounded=0;sketch=0;fontColor=#143642;strokeColor=#0F8B8D;fillColor=#FAE5C7;" vertex="1" parent="WIyWlLk6GJQsqaUBKTNV-1">
          <mxGeometry x="510" y="840" width="50" height="50" as="geometry" />
        </mxCell>
        <mxCell id="KCQO5UrOi2mfF8OqEV4j-55" value="Start" style="ellipse;whiteSpace=wrap;html=1;rounded=0;sketch=0;fontColor=#143642;strokeColor=#0F8B8D;fillColor=#FAE5C7;" vertex="1" parent="WIyWlLk6GJQsqaUBKTNV-1">
          <mxGeometry x="85" y="86" width="50" height="50" as="geometry" />
        </mxCell>
        <mxCell id="KCQO5UrOi2mfF8OqEV4j-56" style="edgeStyle=orthogonalEdgeStyle;curved=0;rounded=1;sketch=0;orthogonalLoop=1;jettySize=auto;html=1;entryX=0.5;entryY=0;entryDx=0;entryDy=0;fontColor=#143642;strokeColor=#A8201A;fillColor=#FAE5C7;exitX=0.478;exitY=1.006;exitDx=0;exitDy=0;exitPerimeter=0;" edge="1" parent="WIyWlLk6GJQsqaUBKTNV-1" target="KCQO5UrOi2mfF8OqEV4j-57" source="KCQO5UrOi2mfF8OqEV4j-22">
          <mxGeometry relative="1" as="geometry">
            <mxPoint x="110" y="810" as="sourcePoint" />
          </mxGeometry>
        </mxCell>
        <mxCell id="KCQO5UrOi2mfF8OqEV4j-57" value="End" style="ellipse;whiteSpace=wrap;html=1;rounded=0;sketch=0;fontColor=#143642;strokeColor=#0F8B8D;fillColor=#FAE5C7;" vertex="1" parent="WIyWlLk6GJQsqaUBKTNV-1">
          <mxGeometry x="85" y="840" width="50" height="50" as="geometry" />
        </mxCell>
        <mxCell id="KCQO5UrOi2mfF8OqEV4j-60" style="edgeStyle=orthogonalEdgeStyle;curved=0;rounded=1;sketch=0;orthogonalLoop=1;jettySize=auto;html=1;entryX=0.504;entryY=0.03;entryDx=0;entryDy=0;fontColor=#143642;strokeColor=#A8201A;fillColor=#FAE5C7;entryPerimeter=0;" edge="1" parent="WIyWlLk6GJQsqaUBKTNV-1" source="KCQO5UrOi2mfF8OqEV4j-58" target="KCQO5UrOi2mfF8OqEV4j-65">
          <mxGeometry relative="1" as="geometry">
            <mxPoint x="945" y="175" as="targetPoint" />
          </mxGeometry>
        </mxCell>
        <mxCell id="KCQO5UrOi2mfF8OqEV4j-58" value="Start" style="ellipse;whiteSpace=wrap;html=1;rounded=0;sketch=0;fontColor=#143642;strokeColor=#0F8B8D;fillColor=#FAE5C7;" vertex="1" parent="WIyWlLk6GJQsqaUBKTNV-1">
          <mxGeometry x="920" y="86" width="50" height="50" as="geometry" />
        </mxCell>
        <mxCell id="KCQO5UrOi2mfF8OqEV4j-61" value="" style="edgeStyle=orthogonalEdgeStyle;rounded=1;sketch=0;orthogonalLoop=1;jettySize=auto;html=1;fontColor=#143642;strokeColor=#A8201A;fillColor=#FAE5C7;labelBackgroundColor=#DAD2D8;exitX=0.953;exitY=0.497;exitDx=0;exitDy=0;exitPerimeter=0;entryX=1;entryY=0.5;entryDx=0;entryDy=0;" edge="1" parent="WIyWlLk6GJQsqaUBKTNV-1" source="KCQO5UrOi2mfF8OqEV4j-65" target="KCQO5UrOi2mfF8OqEV4j-71">
          <mxGeometry relative="1" as="geometry">
            <mxPoint x="1060" y="216" as="targetPoint" />
            <Array as="points">
              <mxPoint x="1070" y="204" />
              <mxPoint x="1070" y="445" />
            </Array>
          </mxGeometry>
        </mxCell>
        <mxCell id="KCQO5UrOi2mfF8OqEV4j-62" value="No" style="edgeLabel;align=center;verticalAlign=middle;resizable=0;points=[];fontColor=#143642;labelBackgroundColor=none;html=1;" vertex="1" connectable="0" parent="KCQO5UrOi2mfF8OqEV4j-61">
          <mxGeometry x="-0.2923" y="-1" relative="1" as="geometry">
            <mxPoint x="-9" y="49" as="offset" />
          </mxGeometry>
        </mxCell>
        <mxCell id="KCQO5UrOi2mfF8OqEV4j-63" value="" style="edgeStyle=orthogonalEdgeStyle;rounded=1;sketch=0;orthogonalLoop=1;jettySize=auto;html=1;fontColor=#143642;strokeColor=#A8201A;fillColor=#FAE5C7;labelBackgroundColor=#DAD2D8;exitX=0.497;exitY=0.961;exitDx=0;exitDy=0;exitPerimeter=0;entryX=0.5;entryY=0;entryDx=0;entryDy=0;" edge="1" parent="WIyWlLk6GJQsqaUBKTNV-1" source="KCQO5UrOi2mfF8OqEV4j-65" target="KCQO5UrOi2mfF8OqEV4j-69">
          <mxGeometry relative="1" as="geometry">
            <mxPoint x="945" y="300" as="targetPoint" />
            <mxPoint x="945" y="260" as="sourcePoint" />
          </mxGeometry>
        </mxCell>
        <mxCell id="KCQO5UrOi2mfF8OqEV4j-64" value="Yes" style="edgeLabel;html=1;align=center;verticalAlign=middle;resizable=0;points=[];fontColor=#143642;labelBackgroundColor=none;" vertex="1" connectable="0" parent="KCQO5UrOi2mfF8OqEV4j-63">
          <mxGeometry x="-0.1308" y="-1" relative="1" as="geometry">
            <mxPoint x="16" as="offset" />
          </mxGeometry>
        </mxCell>
        <mxCell id="KCQO5UrOi2mfF8OqEV4j-65" value="Delete client?" style="rhombus;whiteSpace=wrap;html=1;fillColor=#FAE5C7;strokeColor=#0F8B8D;fontColor=#143642;rounded=1;sketch=0;" vertex="1" parent="WIyWlLk6GJQsqaUBKTNV-1">
          <mxGeometry x="895" y="170" width="100" height="68.5" as="geometry" />
        </mxCell>
        <mxCell id="KCQO5UrOi2mfF8OqEV4j-72" style="edgeStyle=orthogonalEdgeStyle;curved=0;rounded=1;sketch=0;orthogonalLoop=1;jettySize=auto;html=1;exitX=0.5;exitY=1;exitDx=0;exitDy=0;entryX=0.5;entryY=0;entryDx=0;entryDy=0;fontColor=#143642;strokeColor=#A8201A;fillColor=#FAE5C7;" edge="1" parent="WIyWlLk6GJQsqaUBKTNV-1" source="KCQO5UrOi2mfF8OqEV4j-68" target="KCQO5UrOi2mfF8OqEV4j-71">
          <mxGeometry relative="1" as="geometry" />
        </mxCell>
        <mxCell id="KCQO5UrOi2mfF8OqEV4j-68" value="Client deleted" style="shape=parallelogram;perimeter=parallelogramPerimeter;whiteSpace=wrap;html=1;fixedSize=1;rounded=1;sketch=0;fontColor=#143642;strokeColor=#0F8B8D;fillColor=#FAE5C7;" vertex="1" parent="WIyWlLk6GJQsqaUBKTNV-1">
          <mxGeometry x="872.5" y="350" width="145" height="33" as="geometry" />
        </mxCell>
        <mxCell id="KCQO5UrOi2mfF8OqEV4j-70" style="edgeStyle=orthogonalEdgeStyle;curved=0;rounded=1;sketch=0;orthogonalLoop=1;jettySize=auto;html=1;entryX=0.5;entryY=0;entryDx=0;entryDy=0;fontColor=#143642;strokeColor=#A8201A;fillColor=#FAE5C7;" edge="1" parent="WIyWlLk6GJQsqaUBKTNV-1" source="KCQO5UrOi2mfF8OqEV4j-69" target="KCQO5UrOi2mfF8OqEV4j-68">
          <mxGeometry relative="1" as="geometry" />
        </mxCell>
        <mxCell id="KCQO5UrOi2mfF8OqEV4j-69" value="DELETE" style="whiteSpace=wrap;html=1;fillColor=#FAE5C7;strokeColor=#0F8B8D;fontColor=#143642;rounded=1;sketch=0;" vertex="1" parent="WIyWlLk6GJQsqaUBKTNV-1">
          <mxGeometry x="885" y="270" width="120" height="40" as="geometry" />
        </mxCell>
        <mxCell id="KCQO5UrOi2mfF8OqEV4j-71" value="End" style="ellipse;whiteSpace=wrap;html=1;rounded=0;sketch=0;fontColor=#143642;strokeColor=#0F8B8D;fillColor=#FAE5C7;" vertex="1" parent="WIyWlLk6GJQsqaUBKTNV-1">
          <mxGeometry x="920" y="420" width="50" height="50" as="geometry" />
        </mxCell>
      </root>
    </mxGraphModel>
  </diagram>
</mxfile>
